<svg height="166" viewBox="0 0 570 192" fill="#2c352d" xmlns="http://www.w3.org/2000/svg">
	<path d="M9.856 141V45.64H44.544C50.944 45.64 56.576 46.8347 61.44 49.224C66.3893 51.528 70.2293 54.9413 72.96 59.464C75.6907 63.9013 77.056 69.2347 77.056 75.464C77.056 81.608 75.648 86.8987 72.832 91.336C70.1013 95.7733 66.304 99.1867 61.44 101.576C56.576 103.965 50.944 105.16 44.544 105.16H24.96V141H9.856ZM24.96 91.72H44.928C48.3413 91.72 51.328 91.0373 53.888 89.672C56.448 88.3067 58.4533 86.4293 59.904 84.04C61.3547 81.5653 62.08 78.664 62.08 75.336C62.08 72.008 61.3547 69.1493 59.904 66.76C58.4533 64.2853 56.448 62.408 53.888 61.128C51.328 59.7627 48.3413 59.08 44.928 59.08H24.96V91.72ZM122.106 142.536C115.45 142.536 109.349 140.957 103.802 137.8C98.3407 134.643 93.9887 130.333 90.746 124.872C87.5033 119.411 85.882 113.224 85.882 106.312C85.882 99.3147 87.5033 93.128 90.746 87.752C93.9887 82.2907 98.3407 78.024 103.802 74.952C109.263 71.7947 115.365 70.216 122.106 70.216C128.933 70.216 135.034 71.7947 140.41 74.952C145.871 78.024 150.181 82.2907 153.338 87.752C156.581 93.128 158.202 99.3147 158.202 106.312C158.202 113.309 156.581 119.539 153.338 125C150.095 130.461 145.743 134.771 140.282 137.928C134.821 141 128.762 142.536 122.106 142.536ZM122.106 129.096C126.202 129.096 129.829 128.115 132.986 126.152C136.143 124.189 138.618 121.501 140.41 118.088C142.287 114.589 143.226 110.664 143.226 106.312C143.226 101.96 142.287 98.0773 140.41 94.664C138.618 91.2507 136.143 88.5627 132.986 86.6C129.829 84.6373 126.202 83.656 122.106 83.656C118.095 83.656 114.469 84.6373 111.226 86.6C108.069 88.5627 105.551 91.2507 103.674 94.664C101.882 98.0773 100.986 101.96 100.986 106.312C100.986 110.664 101.882 114.589 103.674 118.088C105.551 121.501 108.069 124.189 111.226 126.152C114.469 128.115 118.095 129.096 122.106 129.096ZM172.323 141V71.752H186.147V85.704L184.867 83.656C186.403 79.1333 188.878 75.8907 192.291 73.928C195.704 71.88 199.8 70.856 204.579 70.856H208.803V84.04H202.787C198.008 84.04 194.126 85.5333 191.139 88.52C188.238 91.4213 186.787 95.6027 186.787 101.064V141H172.323ZM249.9 141.768C242.647 141.768 237.015 139.72 233.004 135.624C228.993 131.528 226.988 125.768 226.988 118.344V84.808H214.828V71.752H216.748C219.991 71.752 222.508 70.8133 224.3 68.936C226.092 67.0587 226.988 64.4987 226.988 61.256V55.88H241.452V71.752H257.196V84.808H241.452V117.704C241.452 120.093 241.836 122.141 242.604 123.848C243.372 125.469 244.609 126.749 246.316 127.688C248.023 128.541 250.241 128.968 252.972 128.968C253.655 128.968 254.423 128.925 255.276 128.84C256.129 128.755 256.94 128.669 257.708 128.584V141C256.513 141.171 255.191 141.341 253.74 141.512C252.289 141.683 251.009 141.768 249.9 141.768ZM279.631 141V84.808H266.831V71.752H279.631V68.168C279.631 62.9627 280.698 58.6107 282.831 55.112C284.964 51.528 287.908 48.7973 291.663 46.92C295.503 45.0427 299.898 44.104 304.847 44.104C305.786 44.104 306.852 44.1893 308.047 44.36C309.242 44.4453 310.223 44.5733 310.991 44.744V57.288C310.308 57.1173 309.54 57.032 308.687 57.032C307.834 56.9467 307.151 56.904 306.639 56.904C302.799 56.904 299.727 57.8 297.423 59.592C295.119 61.2987 293.967 64.1573 293.967 68.168V71.752H309.839V84.808H293.967V141H279.631ZM354.106 142.536C347.45 142.536 341.349 140.957 335.802 137.8C330.341 134.643 325.989 130.333 322.746 124.872C319.503 119.411 317.882 113.224 317.882 106.312C317.882 99.3147 319.503 93.128 322.746 87.752C325.989 82.2907 330.341 78.024 335.802 74.952C341.263 71.7947 347.365 70.216 354.106 70.216C360.933 70.216 367.034 71.7947 372.41 74.952C377.871 78.024 382.181 82.2907 385.338 87.752C388.581 93.128 390.202 99.3147 390.202 106.312C390.202 113.309 388.581 119.539 385.338 125C382.095 130.461 377.743 134.771 372.282 137.928C366.821 141 360.762 142.536 354.106 142.536ZM354.106 129.096C358.202 129.096 361.829 128.115 364.986 126.152C368.143 124.189 370.618 121.501 372.41 118.088C374.287 114.589 375.226 110.664 375.226 106.312C375.226 101.96 374.287 98.0773 372.41 94.664C370.618 91.2507 368.143 88.5627 364.986 86.6C361.829 84.6373 358.202 83.656 354.106 83.656C350.095 83.656 346.469 84.6373 343.226 86.6C340.069 88.5627 337.551 91.2507 335.674 94.664C333.882 98.0773 332.986 101.96 332.986 106.312C332.986 110.664 333.882 114.589 335.674 118.088C337.551 121.501 340.069 124.189 343.226 126.152C346.469 128.115 350.095 129.096 354.106 129.096ZM404.323 141V44.104H418.787V141H404.323ZM435.698 141V71.752H450.162V141H435.698ZM435.698 62.28V45.64H450.162V62.28H435.698ZM500.481 142.536C493.825 142.536 487.724 140.957 482.177 137.8C476.716 134.643 472.364 130.333 469.121 124.872C465.878 119.411 464.257 113.224 464.257 106.312C464.257 99.3147 465.878 93.128 469.121 87.752C472.364 82.2907 476.716 78.024 482.177 74.952C487.638 71.7947 493.74 70.216 500.481 70.216C507.308 70.216 513.409 71.7947 518.785 74.952C524.246 78.024 528.556 82.2907 531.713 87.752C534.956 93.128 536.577 99.3147 536.577 106.312C536.577 113.309 534.956 119.539 531.713 125C528.47 130.461 524.118 134.771 518.657 137.928C513.196 141 507.137 142.536 500.481 142.536ZM500.481 129.096C504.577 129.096 508.204 128.115 511.361 126.152C514.518 124.189 516.993 121.501 518.785 118.088C520.662 114.589 521.601 110.664 521.601 106.312C521.601 101.96 520.662 98.0773 518.785 94.664C516.993 91.2507 514.518 88.5627 511.361 86.6C508.204 84.6373 504.577 83.656 500.481 83.656C496.47 83.656 492.844 84.6373 489.601 86.6C486.444 88.5627 483.926 91.2507 482.049 94.664C480.257 98.0773 479.361 101.96 479.361 106.312C479.361 110.664 480.257 114.589 482.049 118.088C483.926 121.501 486.444 124.189 489.601 126.152C492.844 128.115 496.47 129.096 500.481 129.096ZM555.818 141.768C553.599 141.768 551.722 141 550.186 139.464C548.65 137.928 547.882 136.051 547.882 133.832C547.882 131.613 548.65 129.736 550.186 128.2C551.722 126.664 553.599 125.896 555.818 125.896C557.951 125.896 559.743 126.664 561.194 128.2C562.73 129.736 563.498 131.613 563.498 133.832C563.498 136.051 562.73 137.928 561.194 139.464C559.743 141 557.951 141.768 555.818 141.768Z" />
	<path fillRule="evenodd" clipRule="evenodd" d="M9 121V166V167H10H25.104H26.104V166V131.16H44.688C51.2134 131.16 57.001 129.941 62.0249 127.474C65.4228 125.804 68.3255 123.646 70.7252 121H69.3534C67.1677 123.247 64.5779 125.105 61.584 126.576C56.72 128.965 51.088 130.16 44.688 130.16H26.104H25.104V131.16V165V166H24.104H11H10V165V121H9ZM86.3198 121C85.4561 124.23 85.026 127.669 85.026 131.312C85.026 138.387 86.6877 144.753 90.0301 150.383C93.3596 155.99 97.8349 160.422 103.445 163.666L103.451 163.669C109.155 166.916 115.428 168.536 122.25 168.536C129.067 168.536 135.296 166.961 140.916 163.8L140.926 163.794C146.537 160.55 151.012 156.118 154.342 150.511C157.685 144.879 159.346 138.47 159.346 131.312C159.346 127.669 158.916 124.23 158.052 121H157.016C157.903 124.216 158.346 127.653 158.346 131.312C158.346 138.309 156.725 144.539 153.482 150C150.239 155.461 145.887 159.771 140.426 162.928C134.965 166 128.906 167.536 122.25 167.536C115.594 167.536 109.493 165.957 103.946 162.8C98.4847 159.643 94.1327 155.333 90.89 149.872C87.6473 144.411 86.026 138.224 86.026 131.312C86.026 127.653 86.4693 124.216 87.356 121H86.3198ZM103.173 121C101.811 124.081 101.13 127.518 101.13 131.312C101.13 135.664 102.026 139.589 103.818 143.088C105.695 146.501 108.213 149.189 111.37 151.152C114.613 153.115 118.239 154.096 122.25 154.096C126.346 154.096 129.973 153.115 133.13 151.152C136.287 149.189 138.762 146.501 140.554 143.088C142.431 139.589 143.37 135.664 143.37 131.312C143.37 127.518 142.657 124.081 141.23 121H140.122C141.615 124.041 142.37 127.472 142.37 131.312C142.37 135.515 141.465 139.276 139.673 142.615L139.669 142.623C137.956 145.885 135.602 148.438 132.602 150.303C129.619 152.157 126.179 153.096 122.25 153.096C118.413 153.096 114.969 152.16 111.893 150.3C108.895 148.435 106.498 145.882 104.701 142.619C102.994 139.279 102.13 135.517 102.13 131.312C102.13 127.472 102.85 124.041 104.271 121H103.173ZM171.467 121V166V167H172.467H186.931H187.931V166V126.064C187.931 124.206 188.104 122.52 188.444 121H187.421C187.094 122.544 186.931 124.232 186.931 126.064V165V166H185.931H173.467H172.467V165V121H171.467ZM226.132 121V143.344C226.132 150.949 228.19 156.99 232.433 161.324C236.679 165.66 242.597 167.768 250.044 167.768C251.202 167.768 252.523 167.679 254.001 167.505C255.458 167.334 256.789 167.162 257.993 166.99L258.852 166.867V166V153.584V152.467L257.742 152.59C256.978 152.675 256.171 152.76 255.32 152.845C254.492 152.928 253.758 152.968 253.116 152.968C250.488 152.968 248.444 152.557 246.925 151.802C245.398 150.959 244.324 149.834 243.656 148.429C242.962 146.883 242.596 144.985 242.596 142.704V121H241.596V142.704C241.596 145.093 241.98 147.141 242.748 148.848C243.516 150.469 244.753 151.749 246.46 152.688C248.167 153.541 250.385 153.968 253.116 153.968C253.799 153.968 254.567 153.925 255.42 153.84C255.911 153.791 256.389 153.742 256.852 153.693C257.193 153.656 257.526 153.62 257.852 153.584V154.59V166C256.657 166.171 255.335 166.341 253.884 166.512C252.433 166.683 251.153 166.768 250.044 166.768C242.791 166.768 237.159 164.72 233.148 160.624C229.137 156.528 227.132 150.768 227.132 143.344V121H226.132ZM278.775 121V166V167H279.775H294.111H295.111V166V121H294.111V165V166H293.111H280.775H279.775V165V121H278.775ZM318.32 121C317.456 124.23 317.026 127.669 317.026 131.312C317.026 138.387 318.688 144.753 322.03 150.383C325.36 155.99 329.835 160.422 335.445 163.666L335.451 163.669C341.155 166.916 347.428 168.536 354.25 168.536C361.067 168.536 367.296 166.961 372.916 163.8L372.927 163.794C378.537 160.55 383.012 156.118 386.342 150.511C389.685 144.879 391.346 138.47 391.346 131.312C391.346 127.669 390.916 124.23 390.052 121H389.016C389.903 124.216 390.346 127.653 390.346 131.312C390.346 138.309 388.725 144.539 385.482 150C382.239 155.461 377.887 159.771 372.426 162.928C366.965 166 360.906 167.536 354.25 167.536C347.594 167.536 341.493 165.957 335.946 162.8C330.485 159.643 326.133 155.333 322.89 149.872C319.647 144.411 318.026 138.224 318.026 131.312C318.026 127.653 318.469 124.216 319.356 121H318.32ZM335.173 121C333.811 124.081 333.13 127.518 333.13 131.312C333.13 135.664 334.026 139.589 335.818 143.088C337.695 146.501 340.213 149.189 343.37 151.152C346.613 153.115 350.239 154.096 354.25 154.096C358.346 154.096 361.973 153.115 365.13 151.152C368.287 149.189 370.762 146.501 372.554 143.088C374.431 139.589 375.37 135.664 375.37 131.312C375.37 127.518 374.657 124.081 373.23 121H372.122C373.615 124.041 374.37 127.472 374.37 131.312C374.37 135.515 373.465 139.276 371.673 142.615L371.669 142.623C369.956 145.885 367.602 148.438 364.602 150.303C361.619 152.157 358.179 153.096 354.25 153.096C350.413 153.096 346.969 152.16 343.893 150.3C340.895 148.435 338.498 145.881 336.701 142.619C334.993 139.279 334.13 135.517 334.13 131.312C334.13 127.472 334.85 124.041 336.271 121H335.173ZM403.467 121V166V167H404.467H418.931H419.931V166V121H418.931V165V166H417.931H405.467H404.467V165V121H403.467ZM434.842 121V166V167H435.842H450.306H451.306V166V121H450.306V165V166H449.306H436.842H435.842V165V121H434.842ZM464.695 121C463.831 124.23 463.401 127.669 463.401 131.312C463.401 138.387 465.063 144.753 468.405 150.383C471.735 155.99 476.21 160.422 481.82 163.666L481.826 163.669C487.53 166.916 493.803 168.536 500.625 168.536C507.442 168.536 513.671 166.961 519.291 163.8L519.302 163.794C524.912 160.55 529.387 156.118 532.717 150.511C536.06 144.879 537.721 138.47 537.721 131.312C537.721 127.669 537.291 124.23 536.427 121H535.391C536.278 124.216 536.721 127.653 536.721 131.312C536.721 138.309 535.1 144.539 531.857 150C528.614 155.461 524.262 159.771 518.801 162.928C513.34 166 507.281 167.536 500.625 167.536C493.969 167.536 487.868 165.957 482.321 162.8C476.86 159.643 472.508 155.333 469.265 149.872C466.022 144.411 464.401 138.224 464.401 131.312C464.401 127.653 464.844 124.216 465.731 121H464.695ZM481.548 121C480.186 124.081 479.505 127.518 479.505 131.312C479.505 135.664 480.401 139.589 482.193 143.088C484.07 146.501 486.588 149.189 489.745 151.152C492.988 153.115 496.614 154.096 500.625 154.096C504.721 154.096 508.348 153.115 511.505 151.152C514.662 149.189 517.137 146.501 518.929 143.088C520.806 139.589 521.745 135.664 521.745 131.312C521.745 127.518 521.032 124.081 519.605 121H518.497C519.99 124.041 520.745 127.472 520.745 131.312C520.745 135.515 519.84 139.276 518.048 142.615L518.044 142.623C516.331 145.885 513.977 148.438 510.977 150.303C507.994 152.157 504.554 153.096 500.625 153.096C496.788 153.096 493.344 152.16 490.268 150.3C487.27 148.435 484.873 145.881 483.076 142.619C481.368 139.279 480.505 135.517 480.505 131.312C480.505 127.472 481.225 124.041 482.646 121H481.548ZM549.623 165.171C551.351 166.899 553.484 167.768 555.962 167.768C558.362 167.768 560.415 166.892 562.055 165.161C563.776 163.435 564.642 161.305 564.642 158.832C564.642 156.359 563.776 154.229 562.055 152.503C560.415 150.772 558.363 149.896 555.962 149.896C553.484 149.896 551.351 150.765 549.623 152.493C547.895 154.221 547.026 156.354 547.026 158.832C547.026 161.31 547.895 163.443 549.623 165.171ZM563.642 158.832C563.642 161.051 562.874 162.928 561.338 164.464C559.887 166 558.095 166.768 555.962 166.768C553.743 166.768 551.866 166 550.33 164.464C548.794 162.928 548.026 161.051 548.026 158.832C548.026 156.613 548.794 154.736 550.33 153.2C551.866 151.664 553.743 150.896 555.962 150.896C558.095 150.896 559.887 151.664 561.338 153.2C562.874 154.736 563.642 156.613 563.642 158.832Z" />
	<path fillRule="evenodd" clipRule="evenodd" d="M158.052 68.896C157.22 65.7823 155.984 62.8622 154.343 60.1395C151.099 54.5308 146.665 50.1397 141.053 46.9811C135.511 43.7282 129.234 42.112 122.25 42.112C115.347 42.112 109.073 43.73 103.45 46.9794C97.8378 50.1377 93.3617 54.5277 90.0321 60.1342C88.3893 62.8584 87.1528 65.7803 86.3198 68.896H87.356C88.165 65.9622 89.343 63.2128 90.89 60.648C94.1327 55.1867 98.4847 50.92 103.946 47.848C109.407 44.6907 115.509 43.112 122.25 43.112C129.077 43.112 135.178 44.6907 140.554 47.848C146.015 50.92 150.325 55.1867 153.482 60.648C155.029 63.2128 156.207 65.9622 157.016 68.896H158.052ZM188.444 68.896C189.071 66.0901 190.266 63.8471 191.99 62.1231C194.764 59.3492 198.38 57.936 202.931 57.936H208.947H209.947V56.936V43.752V42.752H208.947H204.723C199.803 42.752 195.524 43.8065 191.929 45.9617C190.13 46.9974 188.586 48.3595 187.291 50.0341V44.648V43.648H186.291H172.467H171.467V44.648V68.896H172.467V45.648V44.648H173.467H185.291H186.291V45.648V51.4679V53.4935C186.601 52.8846 186.935 52.3069 187.291 51.7603C188.665 49.651 190.38 48.0055 192.435 46.824C195.848 44.776 199.944 43.752 204.723 43.752H207.947H208.947V44.752V55.936V56.936H207.947H202.931C198.152 56.936 194.27 58.4293 191.283 61.416C189.355 63.3441 188.068 65.8374 187.421 68.896H188.444ZM242.596 68.896V58.704H257.34H258.34V57.704V44.648V43.648H257.34H242.596V28.776V27.776H241.596H227.132H226.132V28.776V34.152C226.132 37.2048 225.293 39.4938 223.721 41.1415C222.162 42.7742 219.934 43.648 216.892 43.648H214.972H213.972V44.648V57.704V58.704H214.972H226.132V68.896H227.132V58.704V57.704H226.132H215.972H214.972V56.704V45.648V44.648H215.972H216.892C220.135 44.648 222.652 43.7093 224.444 41.832C226.236 39.9547 227.132 37.3947 227.132 34.152V29.776V28.776H228.132H240.596H241.596V29.776V43.648V44.648H242.596H256.34H257.34V45.648V56.704V57.704H256.34H242.596H241.596V58.704V68.896H242.596ZM295.111 68.896V58.704H309.983H310.983V57.704V44.648V43.648H309.983H295.111V41.064C295.111 37.2353 296.205 34.7416 298.162 33.2916L298.172 33.2846L298.181 33.2774C300.261 31.6595 303.095 30.8 306.783 30.8C307.247 30.8 307.892 30.8391 308.732 30.923L308.781 30.928H308.831C309.619 30.928 310.304 31.007 310.892 31.1541L312.135 31.4648V30.184V17.64V16.8378L311.352 16.6638C310.526 16.4803 309.503 16.3483 308.297 16.2611C307.082 16.0888 305.979 16 304.991 16C299.913 16 295.365 16.9636 291.368 18.9176L291.36 18.9216C287.437 20.8831 284.35 23.7443 282.119 27.4916C279.869 31.1835 278.775 35.726 278.775 41.064V43.648H266.975H265.975V44.648V57.704V58.704H266.975H278.775V68.896H279.775V58.704V57.704H278.775H267.975H266.975V56.704V45.648V44.648H267.975H278.775H279.775V43.648V41.064C279.775 35.8587 280.842 31.5067 282.975 28.008C285.108 24.424 288.052 21.6933 291.807 19.816C295.647 17.9387 300.042 17 304.991 17C305.93 17 306.996 17.0853 308.191 17.256C309.386 17.3413 310.367 17.4693 311.135 17.64V29.1571V30.184C310.82 30.1052 310.487 30.0446 310.135 30.0022C309.725 29.9527 309.29 29.928 308.831 29.928C307.978 29.8427 307.295 29.8 306.783 29.8C302.943 29.8 299.871 30.696 297.567 32.488C295.263 34.1947 294.111 37.0533 294.111 41.064V43.648V44.648H295.111H308.983H309.983V45.648V56.704V57.704H308.983H295.111H294.111V58.704V68.896H295.111ZM390.052 68.896C389.22 65.7821 387.984 62.8618 386.343 60.139C383.098 54.5303 378.664 50.1394 373.052 46.9809C367.51 43.7282 361.234 42.112 354.25 42.112C347.348 42.112 341.074 43.7298 335.451 46.979C329.838 50.1375 325.361 54.5278 322.032 60.1349C320.389 62.8589 319.153 65.7805 318.32 68.896H319.356C320.165 65.9622 321.343 63.2128 322.89 60.648C326.133 55.1867 330.485 50.92 335.946 47.848C341.407 44.6907 347.509 43.112 354.25 43.112C361.077 43.112 367.178 44.6907 372.554 47.848C378.015 50.92 382.325 55.1867 385.482 60.648C387.029 63.2128 388.207 65.9622 389.016 68.896H390.052ZM419.931 68.896V17V16H418.931H404.467H403.467V17V68.896H404.467V18V17H405.467H417.931H418.931V18V68.896H419.931ZM451.306 68.896V44.648V43.648H450.306H435.842H434.842V44.648V68.896H435.842V45.648V44.648H436.842H449.306H450.306V45.648V68.896H451.306ZM9 68.896V18.536V17.536H10H44.688C51.2093 17.536 56.9938 18.753 62.0155 21.2178C67.1326 23.602 71.1226 27.1453 73.9576 31.8391C76.8015 36.4618 78.2 41.9836 78.2 48.36C78.2 54.6584 76.7555 60.14 73.8242 64.7618C72.907 66.2514 71.8737 67.6296 70.7252 68.896H69.3534C70.7186 67.4927 71.9261 65.938 72.976 64.232C75.792 59.7947 77.2 54.504 77.2 48.36C77.2 42.1307 75.8347 36.7973 73.104 32.36C70.3733 27.8373 66.5333 24.424 61.584 22.12C56.72 19.7307 51.088 18.536 44.688 18.536H11H10V19.536V68.896H9ZM536.427 68.896C535.595 65.7826 534.36 62.8627 532.719 60.1402C529.474 54.5312 525.04 50.14 519.428 46.9813C513.886 43.7283 507.609 42.112 500.625 42.112C493.723 42.112 487.449 43.7298 481.826 46.979C476.213 50.1375 471.736 54.5278 468.407 60.1349C466.764 62.8589 465.528 65.7805 464.695 68.896H465.731C466.54 65.9622 467.718 63.2128 469.265 60.648C472.508 55.1867 476.86 50.92 482.321 47.848C487.782 44.6907 493.884 43.112 500.625 43.112C507.452 43.112 513.553 44.6907 518.929 47.848C524.39 50.92 528.7 55.1867 531.857 60.648C533.404 63.2128 534.582 65.9622 535.391 68.896H536.427ZM519.605 68.896C519.395 68.443 519.17 67.9976 518.929 67.56C517.137 64.1467 514.662 61.4587 511.505 59.496C508.348 57.5333 504.721 56.552 500.625 56.552C496.614 56.552 492.988 57.5333 489.745 59.496C486.588 61.4587 484.07 64.1467 482.193 67.56C481.963 67.9976 481.748 68.443 481.548 68.896H482.646C482.782 68.6053 482.925 68.3181 483.073 68.0345C484.871 64.7693 487.268 62.2143 490.268 60.3483C493.344 58.4878 496.788 57.552 500.625 57.552C504.554 57.552 507.994 58.491 510.977 60.3453C513.977 62.2104 516.331 64.7631 518.044 68.0248L518.048 68.0334L518.053 68.0419C518.207 68.3231 518.356 68.6078 518.497 68.896H519.605ZM373.23 68.896C373.02 68.443 372.795 67.9976 372.554 67.56C370.762 64.1467 368.287 61.4587 365.13 59.496C361.973 57.5333 358.346 56.552 354.25 56.552C350.239 56.552 346.613 57.5333 343.37 59.496C340.213 61.4587 337.695 64.1467 335.818 67.56C335.588 67.9976 335.373 68.443 335.173 68.896H336.271C336.407 68.6053 336.55 68.3181 336.698 68.0345C338.496 64.7693 340.893 62.2143 343.893 60.3483C346.969 58.4878 350.413 57.552 354.25 57.552C358.179 57.552 361.619 58.491 364.602 60.3453C367.602 62.2104 369.956 64.7631 371.669 68.0248L371.673 68.0334L371.678 68.0419C371.832 68.3231 371.98 68.6078 372.122 68.896H373.23ZM141.23 68.896C141.02 68.443 140.795 67.9976 140.554 67.56C138.762 64.1467 136.287 61.4587 133.13 59.496C129.973 57.5333 126.346 56.552 122.25 56.552C118.239 56.552 114.613 57.5333 111.37 59.496C108.213 61.4587 105.695 64.1467 103.818 67.56C103.588 67.9976 103.373 68.443 103.173 68.896H104.271C104.407 68.6049 104.55 68.3173 104.699 68.0334C106.496 64.7687 108.893 62.2141 111.893 60.3483C114.969 58.4878 118.413 57.552 122.25 57.552C126.179 57.552 129.619 58.491 132.602 60.3453C135.602 62.2104 137.956 64.7631 139.669 68.0248L139.673 68.0334L139.678 68.0419C139.832 68.3231 139.981 68.6078 140.122 68.896H141.23ZM59.1853 40.1617L59.1892 40.1684L59.1932 40.175C60.5322 42.3803 61.224 45.0519 61.224 48.232C61.224 51.408 60.5339 54.1269 59.1892 56.4237C57.8356 58.6505 55.967 60.4027 53.5614 61.6856C51.1698 62.9612 48.3502 63.616 45.072 63.616H26.104V32.976H45.072C48.3502 32.976 51.1698 33.6308 53.5614 34.9064L53.573 34.9125L53.5848 34.9184C55.9712 36.1116 57.8323 37.8537 59.1853 40.1617ZM54.032 62.568C56.592 61.2027 58.5973 59.3253 60.048 56.936C61.4987 54.4613 62.224 51.56 62.224 48.232C62.224 44.904 61.4987 42.0453 60.048 39.656C58.5973 37.1813 56.592 35.304 54.032 34.024C51.472 32.6587 48.4853 31.976 45.072 31.976H26.104H25.104V32.976V63.616V64.616H26.104H45.072C48.4853 64.616 51.472 63.9333 54.032 62.568ZM434.842 35.176V36.176H435.842H450.306H451.306V35.176V18.536V17.536H450.306H435.842H434.842V18.536V35.176ZM435.842 35.176V34.176V19.536V18.536H436.842H449.306H450.306V19.536V34.176V35.176H449.306H436.842H435.842Z"/>
</svg>
